<svg xmlns="http://www.w3.org/2000/svg" width="878" height="236" viewBox="0 0 878 236" version="1.1"><path d="M 102.216 56.019 C 76.853 62.664, 57.696 84.234, 54.101 110.196 C 50.514 136.101, 64.912 163.513, 88.058 174.847 C 92.701 177.120, 99.200 179.683, 102.500 180.542 C 110.383 182.595, 126.708 182.601, 134.500 180.555 C 143.920 178.082, 155.877 171.712, 162.709 165.527 C 178.376 151.345, 187.605 128.039, 179.738 122.529 C 178.012 121.320, 174.378 121, 162.388 121 C 149.413 121, 146.917 121.253, 145.114 122.750 C 141.898 125.420, 141.412 129.983, 143.994 133.266 C 146.066 135.899, 146.492 136, 155.573 136 C 160.758 136, 165 136.243, 165 136.540 C 165 136.837, 164.034 138.974, 162.853 141.290 C 160.001 146.882, 148.758 157.857, 142.425 161.230 C 128.036 168.897, 108.947 168.895, 94.575 161.226 C 88.064 157.752, 78.248 147.936, 74.774 141.425 C 64.316 121.826, 68.268 98.333, 84.592 83.063 C 96.405 72.012, 110.513 67.502, 126.141 69.779 C 140.094 71.813, 150.110 77.989, 161.291 91.450 C 165.981 97.097, 175 94.455, 175 87.435 C 175 81.204, 162.148 67.953, 149.822 61.476 C 135.816 54.116, 117.494 52.016, 102.216 56.019" stroke="none" fill="#f9fafb" fill-rule="evenodd"/><path d="M 108.500 0.580 C 88.948 3.286, 78.479 6.227, 65.846 12.562 C 53.749 18.627, 45.029 24.971, 35 35 C 17.439 52.561, 6.187 73.982, 1.908 98 C 0.197 107.604, 0.190 128.336, 1.895 138 C 12.851 200.107, 70.854 243.007, 133 234.968 C 185.872 228.129, 228.129 185.872, 234.968 133 C 237.918 110.198, 232.888 82.299, 222.348 63 C 205.138 31.487, 174.783 8.968, 140.835 2.528 C 132.704 0.986, 113.797 -0.153, 108.500 0.580 M 102.216 56.019 C 76.853 62.664, 57.696 84.234, 54.101 110.196 C 50.514 136.101, 64.912 163.513, 88.058 174.847 C 92.701 177.120, 99.200 179.683, 102.500 180.542 C 110.383 182.595, 126.708 182.601, 134.500 180.555 C 143.920 178.082, 155.877 171.712, 162.709 165.527 C 178.376 151.345, 187.605 128.039, 179.738 122.529 C 178.012 121.320, 174.378 121, 162.388 121 C 149.413 121, 146.917 121.253, 145.114 122.750 C 141.898 125.420, 141.412 129.983, 143.994 133.266 C 146.066 135.899, 146.492 136, 155.573 136 C 160.758 136, 165 136.243, 165 136.540 C 165 136.837, 164.034 138.974, 162.853 141.290 C 160.001 146.882, 148.758 157.857, 142.425 161.230 C 128.036 168.897, 108.947 168.895, 94.575 161.226 C 88.064 157.752, 78.248 147.936, 74.774 141.425 C 64.316 121.826, 68.268 98.333, 84.592 83.063 C 96.405 72.012, 110.513 67.502, 126.141 69.779 C 140.094 71.813, 150.110 77.989, 161.291 91.450 C 165.981 97.097, 175 94.455, 175 87.435 C 175 81.204, 162.148 67.953, 149.822 61.476 C 135.816 54.116, 117.494 52.016, 102.216 56.019 M 374.870 62.517 C 366.909 65.051, 360.884 69.834, 357.641 76.198 C 355.155 81.074, 354.737 83.044, 354.737 89.860 C 354.737 107.126, 363.662 115.897, 390 124.516 C 396.325 126.586, 403.579 129.319, 406.120 130.590 C 414.767 134.917, 418.637 142.038, 417.737 151.968 C 416.764 162.694, 411.559 169.178, 401.228 172.533 C 393.069 175.182, 374.948 174.188, 365.137 170.553 C 360.972 169.010, 357.397 168.203, 356.906 168.694 C 356.428 169.172, 355.758 170.961, 355.416 172.671 C 354.811 175.695, 354.950 175.838, 360.551 177.933 C 370.013 181.473, 375.456 182.211, 389.314 181.834 C 400.966 181.517, 403.145 181.174, 408.046 178.886 C 415.690 175.318, 420.423 170.875, 423.710 164.182 C 426.141 159.231, 426.500 157.333, 426.500 149.421 C 426.500 141.058, 426.261 139.956, 423.468 135.439 C 419.229 128.583, 412.282 123.720, 400.549 119.398 C 378.012 111.096, 375.174 109.840, 371.147 106.394 C 368.837 104.417, 366.344 101.607, 365.607 100.150 C 359.903 88.870, 365.536 74.308, 377.088 70.471 C 384.337 68.063, 402.092 68.804, 410.892 71.881 C 417.813 74.302, 418.957 73.975, 419.290 69.479 C 419.487 66.817, 419.057 66.478, 412.500 64.120 C 406.624 62.006, 403.413 61.557, 392.500 61.323 C 383.145 61.122, 378.202 61.457, 374.870 62.517 M 544 121.448 L 544 181 548.526 181 L 553.051 181 552.776 128.250 L 552.500 75.500 585.982 128.250 L 619.463 181 624.232 181 L 629 181 629 121.500 L 629 62 624.443 62 L 619.886 62 620.193 114.408 L 620.500 166.815 616.312 160.158 C 614.008 156.496, 599.116 133.025, 583.219 108 L 554.314 62.500 549.157 62.198 L 544 61.895 544 121.448 M 264 122 L 264 181 299.500 181 L 335 181 335 177.500 L 335 174 304 174 L 273 174 273 148.500 L 273 123 301.500 123 L 330 123 330 119.500 L 330 116 301.500 116 L 273 116 273 93 L 273 70 303.500 70 L 334 70 334 66.500 L 334 63 299 63 L 264 63 264 122 M 450 122 L 450 181 485.500 181 L 521 181 521 177.500 L 521 174 490 174 L 459 174 459 148.500 L 459 123 487.500 123 L 516 123 516 119.500 L 516 116 487.500 116 L 459 116 459 93 L 459 70 489.500 70 L 520 70 520 66.500 L 520 63 485 63 L 450 63 450 122 M 659 122 L 659 181 694.500 181 L 730 181 730 177.500 L 730 174 699 174 L 668 174 668 148.500 L 668 123 696.500 123 L 725 123 725 119.500 L 725 116 696.500 116 L 668 116 668 93 L 668 70 698.500 70 L 729 70 729 66.500 L 729 63 694 63 L 659 63 659 122 M 754 121.942 L 754 181 758.500 181 L 763 181 763 156 L 763 131 778.750 131.029 L 794.500 131.057 809.500 156.021 L 824.500 180.985 829.800 180.992 C 833.888 180.998, 834.917 180.703, 834.300 179.703 C 824.687 164.111, 804.894 130.813, 805.152 130.668 C 805.343 130.562, 807.975 129.635, 811 128.610 C 825.940 123.545, 834 112.293, 834 96.500 C 834 82.768, 827.905 72.541, 816.318 66.834 L 809.551 63.500 781.775 63.192 L 754 62.884 754 121.942 M 763 96.995 L 763 124.274 782.750 123.715 C 804.369 123.104, 807.538 122.508, 814.635 117.723 C 821.663 112.985, 824.500 106.890, 824.500 96.527 C 824.500 89.549, 824.123 87.820, 821.615 83.293 C 818.669 77.977, 814.240 74.329, 808 72.078 C 805.838 71.298, 796.566 70.605, 783.750 70.266 L 763 69.717 763 96.995 M 262 194.500 C 262 195.830, 294.556 196, 549 196 C 803.444 196, 836 195.830, 836 194.500 C 836 193.170, 803.444 193, 549 193 C 294.556 193, 262 193.170, 262 194.500 M 265.635 209.073 C 260.382 213.204, 263.147 219.115, 271.463 221.532 C 279.616 223.902, 281.284 227.547, 275.435 230.212 C 272.082 231.739, 267.853 229.620, 267.001 225.985 C 266.634 224.420, 265.600 223.382, 264.209 223.180 C 261.606 222.804, 261.565 223.023, 263.415 227.452 C 265.179 231.672, 267.587 233, 273.480 233 C 284.238 233, 286.614 220.649, 276.275 218.464 C 267.453 216.600, 263.997 212.092, 269.722 209.916 C 273.068 208.644, 276.548 210, 277.481 212.939 C 278.328 215.608, 282 215.716, 282 213.073 C 282 209.994, 277.316 207, 272.500 207 C 269.735 207, 267.357 207.718, 265.635 209.073 M 313 220 C 313 232.244, 313.114 233, 314.960 233 C 316.724 233, 316.948 232.178, 317.210 224.750 L 317.500 216.500 320.622 224.500 C 324.743 235.058, 326.289 235.137, 330.434 225 L 333.500 217.500 333.792 225.250 C 334.053 232.178, 334.292 233, 336.042 233 C 337.886 233, 338 232.240, 338 220 C 338 207.051, 337.991 207, 335.669 207 C 333.654 207, 332.825 208.296, 329.556 216.554 C 327.476 221.809, 325.642 225.971, 325.480 225.804 C 325.317 225.637, 323.521 221.338, 321.487 216.250 C 318.265 208.187, 317.483 207, 315.395 207 L 313 207 313 220 M 372.579 218.750 C 370.458 225.213, 368.497 231.102, 368.221 231.838 C 367.871 232.769, 368.436 233.073, 370.076 232.838 C 371.870 232.581, 372.644 231.605, 373.316 228.750 C 374.183 225.068, 374.285 225, 378.941 225 C 383.607 225, 383.703 225.064, 384.882 229 C 385.778 231.990, 386.602 233, 388.147 233 C 389.384 233, 390.026 232.498, 389.746 231.750 C 389.488 231.063, 387.542 225.213, 385.421 218.750 C 381.830 207.806, 381.389 207, 379 207 C 376.611 207, 376.170 207.806, 372.579 218.750 M 421 220 C 421 232.333, 421.103 233, 423 233 C 424.758 233, 425 232.333, 425 227.500 L 425 222 428.566 222 C 433.692 222, 436 223.538, 436 226.953 C 436 231.203, 436.964 233, 439.243 233 C 441.086 233, 441.213 232.568, 440.626 228.290 C 440.271 225.700, 439.541 223.141, 439.004 222.604 C 438.368 221.968, 438.616 220.977, 439.714 219.764 C 442.236 216.977, 441.902 211.149, 439.089 208.871 C 437.268 207.396, 435.107 207, 428.889 207 L 421 207 421 220 M 470 208 C 470 208.550, 471.800 209, 474 209 L 478 209 478 221 C 478 232.333, 478.111 233, 480 233 C 481.889 233, 482 232.333, 482 221 L 482 209 486.500 209 C 488.975 209, 491 208.550, 491 208 C 491 207.397, 486.833 207, 480.500 207 C 474.167 207, 470 207.397, 470 208 M 560 220 L 560 233 569.500 233 C 577.278 233, 579 232.728, 579 231.500 C 579 230.300, 577.500 230, 571.500 230 L 564 230 564 225.500 L 564 221 570.500 221 C 575.611 221, 577 220.679, 577 219.500 C 577 218.321, 575.611 218, 570.500 218 L 564 218 564 214 L 564 210 571.500 210 C 577.500 210, 579 209.700, 579 208.500 C 579 207.272, 577.278 207, 569.500 207 L 560 207 560 220 M 609 220 C 609 232.250, 609.113 233, 610.962 233 C 612.750 233, 612.951 232.177, 613.212 223.750 L 613.500 214.500 619.339 223.750 C 624.070 231.244, 625.637 233, 627.589 233 L 630 233 630 220 L 630 207 627.500 207 C 625.014 207, 625 207.053, 624.988 216.250 L 624.976 225.500 619.018 216.250 C 614.720 209.578, 612.494 207, 611.030 207 C 609.094 207, 609 207.602, 609 220 M 661 220 L 661 233 670.500 233 C 678.278 233, 680 232.728, 680 231.500 C 680 230.300, 678.500 230, 672.500 230 L 665 230 665 225.500 L 665 221 671.500 221 C 676.611 221, 678 220.679, 678 219.500 C 678 218.321, 676.611 218, 671.500 218 L 665 218 665 214 L 665 210 672.500 210 C 678.500 210, 680 209.700, 680 208.500 C 680 207.272, 678.278 207, 670.500 207 L 661 207 661 220 M 710 220 C 710 232.333, 710.103 233, 712 233 C 713.758 233, 714 232.333, 714 227.500 L 714 222 717.566 222 C 722.692 222, 725 223.538, 725 226.953 C 725 231.203, 725.964 233, 728.243 233 C 730.086 233, 730.213 232.568, 729.626 228.290 C 729.271 225.700, 728.541 223.141, 728.004 222.604 C 727.368 221.968, 727.616 220.977, 728.714 219.764 C 731.236 216.977, 730.902 211.149, 728.089 208.871 C 726.268 207.396, 724.107 207, 717.889 207 L 710 207 710 220 M 763.400 210.400 C 760.265 213.535, 760 214.282, 760 220 C 760 225.718, 760.265 226.465, 763.400 229.600 C 766.268 232.468, 767.510 233, 771.341 233 C 773.839 233, 776.161 232.548, 776.502 231.996 C 776.843 231.444, 778.220 231.268, 779.561 231.605 C 781.962 232.207, 782 232.114, 782 225.608 L 782 219 776.500 219 C 772.278 219, 771 219.348, 771 220.500 C 771 221.548, 772.056 222, 774.500 222 C 778.242 222, 778.928 223.397, 776.977 227.043 C 775.291 230.193, 772.232 231.339, 769.039 230.016 C 765.692 228.630, 764 225.266, 764 220 C 764 214.734, 765.692 211.370, 769.039 209.984 C 772.254 208.652, 775.293 209.811, 777.012 213.023 C 777.594 214.110, 778.955 215, 780.035 215 C 782.325 215, 782.357 214.877, 780.890 211.657 C 779.493 208.592, 776.062 207, 770.853 207 C 767.577 207, 766.148 207.652, 763.400 210.400 M 812.596 208.250 C 812.988 208.938, 815.265 212.281, 817.655 215.679 C 821.522 221.179, 822 222.471, 822 227.429 C 822 232.705, 822.133 233, 824.500 233 C 826.866 233, 827 232.703, 827 227.455 C 827 222.451, 827.491 221.182, 832.030 214.455 C 836.713 207.516, 836.903 207.002, 834.780 207.030 C 833.136 207.052, 831.362 208.717, 828.423 212.997 L 824.347 218.933 820.139 212.967 C 817.361 209.028, 815.243 207, 813.907 207 C 812.573 207, 812.126 207.427, 812.596 208.250 M 425 214.500 L 425 220 429.066 220 C 434.973 220, 437 218.595, 437 214.500 C 437 210.405, 434.973 209, 429.066 209 L 425 209 425 214.500 M 714 214.500 L 714 220 718.066 220 C 723.973 220, 726 218.595, 726 214.500 C 726 210.405, 723.973 209, 718.066 209 L 714 209 714 214.500 M 377.158 217.866 C 375.603 223.059, 375.582 223, 379 223 C 380.650 223, 382 222.715, 382 222.366 C 382 220.690, 379.601 214, 379 214 C 378.624 214, 377.795 215.740, 377.158 217.866" stroke="none" fill="#0c54e4" fill-rule="evenodd"/></svg>